<?xml version="1.0" encoding="UTF-8" standalone="no"?>
<svg
   xmlns:dc="http://purl.org/dc/elements/1.1/"
   xmlns:cc="http://creativecommons.org/ns#"
   xmlns:rdf="http://www.w3.org/1999/02/22-rdf-syntax-ns#"
   xmlns:svg="http://www.w3.org/2000/svg"
   xmlns="http://www.w3.org/2000/svg"
   xmlns:sodipodi="http://sodipodi.sourceforge.net/DTD/sodipodi-0.dtd"
   xmlns:inkscape="http://www.inkscape.org/namespaces/inkscape"
   id="svg8"
   version="1.1"
   viewBox="0 0 210 297"
   height="297mm"
   width="210mm"
   sodipodi:docname="family.svg"
   inkscape:version="0.92.4 (5da689c313, 2019-01-14)">
  <sodipodi:namedview
     pagecolor="#ffffff"
     bordercolor="#666666"
     borderopacity="1"
     objecttolerance="10"
     gridtolerance="10"
     guidetolerance="10"
     inkscape:pageopacity="0"
     inkscape:pageshadow="2"
     inkscape:window-width="1920"
     inkscape:window-height="1046"
     id="namedview8"
     showgrid="false"
     inkscape:zoom="1.1893044"
     inkscape:cx="447.37467"
     inkscape:cy="598.42549"
     inkscape:window-x="-11"
     inkscape:window-y="-11"
     inkscape:window-maximized="1"
     inkscape:current-layer="svg8" />
  <defs
     id="defs2" />
  <metadata
     id="metadata5">
    <rdf:RDF>
      <cc:Work
         rdf:about="">
        <dc:format>image/svg+xml</dc:format>
        <dc:type
           rdf:resource="http://purl.org/dc/dcmitype/StillImage" />
        <dc:title />
      </cc:Work>
    </rdf:RDF>
  </metadata>
  <g
     id="layer1"
     transform="translate(-48.053299,-0.66740693)">
    <ellipse
       ry="13.964835"
       rx="14.07174"
       cy="93.193619"
       cx="102.51122"
       id="path10"
       style="fill:#ffb380;stroke-width:0.12678087" />
    <path
       style="fill:#e6e6e6;stroke-width:0.32117769"
       d="m 134.81502,121.40776 c -2.03533,-8.96827 -7.57877,-12.38816 -15.57368,-12.38816 0,0 -1.55019,-0.0111 0,0 -10.93383,-0.0312 -27.658622,-0.0268 -33.059342,3e-4 -5.40072,0.0271 5.921417,0 -3.108854,0 -9.030271,0 -11.443663,9.54242 -11.463719,13.16711 -0.02006,3.6247 -0.07469,13.48752 -0.112608,20.33449 -0.03792,6.84697 -0.07597,18.83194 -0.114902,20.74735 -0.03893,1.91541 3.12557,5.53224 6.068539,5.59685 2.942969,0.0646 6.238997,-4.00118 6.247589,-5.54052 0.0086,-1.53934 0.05624,-10.17107 0.115921,-20.95824 0.05968,-10.78717 0.08866,-20.22829 0.159409,-20.53435 0.124328,-0.53652 0.674758,-0.90074 1.275022,-0.84381 0.600276,0.0569 1.054938,0.79087 1.054938,1.06479 0,0.27392 0.0025,94.19225 0.0025,94.19225 0,3.70581 3.308379,6.71042 7.38959,6.71042 4.094014,0 7.389587,-3.02175 7.389587,-6.71042 v -52.18824 c 0,-0.80005 0.71419,-1.4486 1.59521,-1.4486 0.88102,0 1.5952,0.64855 1.5952,1.4486 v 52.18794 c 0,3.68989 3.29592,6.71043 7.38959,6.71043 4.08121,0 7.38959,-3.00432 7.38959,-6.71043 0,-48.72974 -0.0994,-85.01406 -0.1274,-93.92628 -0.002,-0.63142 0.54904,-1.1502 1.24402,-1.17101 0.69497,-0.0208 1.28311,0.46338 1.32658,1.09387 0,0 3.70488,8.41236 4.56061,11.12406 0.85574,2.7117 2.35094,8.67924 3.007,11.73738 0.65607,3.05813 2.77044,11.71702 3.33803,13.77165 0.56759,2.05463 2.32147,6.69096 5.04503,4.78527 3.10114,-2.16989 3.23299,-2.86858 2.8217,-5.39746 -0.41129,-2.52889 -0.74194,-4.03797 -2.33654,-16.89614 -1.5946,-12.85817 -1.08328,-10.99083 -3.11861,-19.9591 z"
       id="XMLID_983_"
       inkscape:connector-curvature="0"
       sodipodi:nodetypes="zccsscscccsccscssssssssccczzzszzz" />
  </g>
  <g
     id="layer1-8"
     transform="matrix(-1,0,0,1,225.70982,-0.5883331)">
    <ellipse
       ry="13.964835"
       rx="14.07174"
       cy="93.193619"
       cx="102.51122"
       id="path10-9"
       style="fill:#ffb380;stroke-width:0.12678087" />
    <path
       style="fill:#e6e6e6;stroke-width:0.32117769"
       d="m 134.81502,121.40776 c -2.03533,-8.96827 -7.57877,-12.38816 -15.57368,-12.38816 0,0 -1.55019,-0.0111 0,0 -10.93383,-0.0312 -27.658622,-0.0268 -33.059342,3e-4 -5.40072,0.0271 5.921417,0 -3.108854,0 -9.030271,0 -11.443663,9.54242 -11.463719,13.16711 -0.02006,3.6247 -0.07469,13.48752 -0.112608,20.33449 -0.03792,6.84697 -1.334445,18.83194 -1.373377,20.74735 -0.03893,1.91541 2.181714,5.21762 5.124683,5.28223 2.942969,0.0646 6.081688,-3.68656 6.09028,-5.2259 0.0086,-1.53934 0.471141,-12.3111 0.902468,-19.22784 0.431326,-6.91674 1.661753,-21.95869 1.732502,-22.26475 0.124328,-0.53652 0.674758,-0.90074 1.275022,-0.84381 0.600276,0.0569 1.054938,0.79087 1.054938,1.06479 0,0.0632 1.613498,9.90436 1.669073,22.4663 0.039,8.81583 -3.413571,18.84104 -7.899312,28.14268 3.909199,0.75569 8.889587,-0.14002 10.190771,-0.1223 -0.536404,8.68603 -0.497227,43.23364 -0.497227,43.23364 0,3.70581 1.263358,7.18235 5.344569,7.18235 4.094014,0 5.987083,-3.02177 5.973803,-6.71042 0,0 -0.14902,-43.5946 -0.15731,-43.69354 -0.0113,-0.13456 2.28728,-0.11147 3.1683,-0.11147 0.88102,0 3.39944,0.15813 3.40426,0.34744 0.0245,0.28763 -0.8652,43.45727 -0.8652,43.45727 -0.0734,3.68916 0.93628,6.71043 5.02995,6.71043 4.08121,0 5.18726,-3.16163 5.18726,-6.86774 0,-13.23432 -0.20398,-43.18891 -0.20398,-43.18891 0,0 8.90685,-0.16612 11.49097,-0.21463 -0.0115,-7.37423 -9.14832,-21.82983 -9.16077,-27.68639 -0.0211,-9.92096 -0.041,-19.40524 -0.0513,-22.67904 -0.002,-0.63142 0.54904,-1.1502 1.24402,-1.17101 0.69497,-0.0208 1.28311,0.46338 1.32658,1.09387 0,0 3.70488,8.41236 4.56061,11.12406 0.85574,2.7117 2.35094,8.67924 3.007,11.73738 0.65607,3.05813 2.77044,11.71702 3.33803,13.77165 0.56759,2.05463 2.32147,6.69096 5.04503,4.78527 3.10114,-2.16989 3.23299,-2.86858 2.8217,-5.39746 -0.41129,-2.52889 -0.74194,-4.03797 -2.33654,-16.89614 -1.5946,-12.85817 -1.08328,-10.99083 -3.11861,-19.9591 z"
       id="XMLID_983_-5"
       inkscape:connector-curvature="0"
       sodipodi:nodetypes="cccsscsccczccsscccsssscsssccsccczzzszzzc" />
  </g>
</svg>
