<?xml version="1.0" encoding="UTF-8" standalone="no"?>
<svg
   xmlns:dc="http://purl.org/dc/elements/1.1/"
   xmlns:cc="http://creativecommons.org/ns#"
   xmlns:rdf="http://www.w3.org/1999/02/22-rdf-syntax-ns#"
   xmlns:svg="http://www.w3.org/2000/svg"
   xmlns="http://www.w3.org/2000/svg"
   id="svg8"
   version="1.1"
   viewBox="0 0 210 297"
   height="297mm"
   width="210mm">
  <defs
     id="defs2" />
  <metadata
     id="metadata5">
    <rdf:RDF>
      <cc:Work
         rdf:about="">
        <dc:format>image/svg+xml</dc:format>
        <dc:type
           rdf:resource="http://purl.org/dc/dcmitype/StillImage" />
        <dc:title></dc:title>
      </cc:Work>
    </rdf:RDF>
  </metadata>
  <g
     id="layer1">
    <ellipse
       ry="13.964835"
       rx="14.07174"
       cy="93.193619"
       cx="102.51122"
       id="path10"
       style="fill:#ffb380;stroke-width:0.12678087" />
    <path
       style="fill:#e6e6e6;stroke-width:0.32117769"
       d="m 133.81391,122.1864 c 0.0266,-8.72822 -6.57766,-13.1668 -14.57257,-13.1668 0,0 -1.55019,-0.0111 0,0 -10.93383,-0.0312 -27.658622,-0.0268 -33.059342,3e-4 -5.40072,0.0271 5.921417,0 -3.108854,0 -9.030271,0 -11.443663,9.54242 -11.463719,13.16711 -0.02006,3.6247 -0.07469,13.48752 -0.112608,20.33449 -0.03792,6.84697 -0.07597,18.83194 -0.114902,20.74735 -0.03893,1.91541 3.12557,5.53224 6.068539,5.59685 2.942969,0.0646 6.238997,-4.00118 6.247589,-5.54052 0.0086,-1.53934 0.05624,-10.17107 0.115921,-20.95824 0.05968,-10.78717 0.08866,-20.22829 0.159409,-20.53435 0.124328,-0.53652 0.674758,-0.90074 1.275022,-0.84381 0.600276,0.0569 1.054938,0.79087 1.054938,1.06479 0,0.27392 0.0025,94.19225 0.0025,94.19225 0,3.70581 3.308379,6.71042 7.38959,6.71042 4.094014,0 7.389587,-3.02175 7.389587,-6.71042 v -52.18824 c 0,-0.80005 0.71419,-1.4486 1.59521,-1.4486 0.88102,0 1.5952,0.64855 1.5952,1.4486 v 52.18794 c 0,3.68989 3.29592,6.71043 7.38959,6.71043 4.08121,0 7.38959,-3.00432 7.38959,-6.71043 0,-48.72974 -0.0994,-85.01406 -0.1274,-93.92628 -0.002,-0.63142 0.54904,-1.1502 1.24402,-1.17101 0.69497,-0.0208 1.28311,0.46338 1.32658,1.09387 0,0 -0.01,-3.45743 0,6.1e-4 0.01,3.45804 0.077,13.90039 0.1149,20.74737 0.0378,6.84698 0.10363,18.795 0.11223,20.33449 0.009,1.53949 2.83376,5.50911 6.15737,5.56391 3.32361,0.0548 6.12261,-4.32979 6.15874,-5.61993 0.0361,-1.29014 -0.11185,-20.23317 -0.11185,-20.23317 0,0 -0.14185,-12.12076 -0.11528,-20.84898 z"
       id="XMLID_983_" />
  </g>
</svg>
