<?xml version="1.0" encoding="iso-8859-1"?>
<!-- Generator: Adobe Illustrator 18.0.0, SVG Export Plug-In . SVG Version: 6.00 Build 0)  -->
<!DOCTYPE svg PUBLIC "-//W3C//DTD SVG 1.1//EN" "http://www.w3.org/Graphics/SVG/1.1/DTD/svg11.dtd">
<svg version="1.1" id="Capa_1" xmlns="http://www.w3.org/2000/svg" xmlns:xlink="http://www.w3.org/1999/xlink" x="0px" y="0px"
	 viewBox="0 0 51.973 51.973" style="enable-background:new 0 0 51.973 51.973;" xml:space="preserve">
<path d="M50.547,43.426c-0.281-0.281-0.663-0.439-1.061-0.439l-6.142,0l-0.002-25.63c0-4.619-1.811-8.973-5.098-12.26
	C34.957,1.81,30.604,0,25.984,0C16.413,0.001,8.627,7.789,8.627,17.359l0.002,25.63l-6.142,0c-0.828,0-1.5,0.671-1.5,1.5v5.982
	c0,0.398,0.158,0.779,0.439,1.061c0.281,0.281,0.663,0.439,1.061,0.439l47-0.003c0.828,0,1.5-0.671,1.5-1.5v-5.982
	C50.986,44.089,50.828,43.708,50.547,43.426z M11.627,17.359c0-7.917,6.44-14.358,14.357-14.359c3.817,0,7.419,1.498,10.14,4.218
	c2.721,2.721,4.219,6.321,4.219,10.139l0.002,25.631L11.629,42.99L11.627,17.359z M35.954,39.111c0,0.828-0.672,1.5-1.5,1.5
	l-16.936,0.001c-0.828,0-1.5-0.671-1.5-1.5c0-0.828,0.672-1.5,1.5-1.5l16.936-0.001C35.282,37.611,35.954,38.282,35.954,39.111z
	 M35.954,33.733c0,0.828-0.672,1.5-1.5,1.5l-16.936,0.001c-0.828,0-1.5-0.671-1.5-1.5c0-0.828,0.672-1.5,1.5-1.5l16.936-0.001
	C35.282,32.233,35.954,32.905,35.954,33.733z M35.954,28.356c0,0.828-0.672,1.5-1.5,1.5l-16.936,0.002c-0.828,0-1.5-0.671-1.5-1.5
	c0-0.828,0.672-1.5,1.5-1.5l16.936-0.002C35.282,26.856,35.954,27.527,35.954,28.356z M20.268,12.486c0-0.829,0.672-1.5,1.5-1.5
	h2.719V7.611c0-0.829,0.672-1.5,1.5-1.5c0.828,0,1.5,0.671,1.5,1.5v3.375h2.719c0.828,0,1.5,0.671,1.5,1.5s-0.672,1.5-1.5,1.5
	h-2.719v7.375c0,0.829-0.672,1.5-1.5,1.5c-0.828,0-1.5-0.671-1.5-1.5v-7.375h-2.719C20.94,13.986,20.268,13.314,20.268,12.486z"/>
<g>
</g>
<g>
</g>
<g>
</g>
<g>
</g>
<g>
</g>
<g>
</g>
<g>
</g>
<g>
</g>
<g>
</g>
<g>
</g>
<g>
</g>
<g>
</g>
<g>
</g>
<g>
</g>
<g>
</g>
</svg>
